<?xml version="1.0" encoding="UTF-8"?>
<svg id="Layer_2" data-name="Layer 2" xmlns="http://www.w3.org/2000/svg" viewBox="0 0 717.67 544.56">
  <defs>
    <style>
      .cls-1 {
        fill: #ffb6b6;
      }

      .cls-2 {
        fill: #2f2e41;
      }

      .cls-3 {
        fill: #fff;
      }

      .cls-4 {
        fill: #e6e6e6;
      }

      .cls-5 {
        fill: #a674fe;
      }

      .cls-6 {
        fill: #6c63ff;
      }

      .cls-7 {
        fill: #ffb8b8;
      }

      .cls-8 {
        fill: #ccc;
      }
    </style>
  </defs>
  <g id="Layer_1-2" data-name="Layer 1">
    <path class="cls-2" d="m434.91,40.24c1.09,2.12,2.42,4.11,3.98,5.92,10.02,12.32-10.92,38.4-.9,50.72l1.37,1.37c-16.59-5.27-.13-30.65-8.87-45.71"/>
    <path class="cls-7" d="m348.6,273.51c.88,4.8,4.93,8.36,9.8,8.63,5.82.32,10.8-4.14,11.11-9.96l22.85-58.67-11.96-15.25-21.61,62.79c-.62,0-1.23.07-1.84.18-5.69,1.08-9.43,6.58-8.35,12.27h0Z"/>
    <path class="cls-5" d="m431.39,147.49l-50,111.62-22.02-11.92s44.26-121.98,64.58-135,19.65,9.71,19.65,9.71l-12.22,25.58Z"/>
    <polygon class="cls-1" points="400.37 472.34 415.35 478.74 393.79 515.83 383.64 511.49 400.37 472.34"/>
    <path class="cls-2" d="m383.29,503.12l16.63,5.96-2.97,6.95,10.87,17.23c.83,1.31.96,2.95.35,4.37-1.02,2.4-3.8,3.51-6.19,2.48l-19.31-8.25-.39-8.29-4.24,6.32-7.28-3.11,12.53-23.66Z"/>
    <polygon class="cls-1" points="540.67 481.54 556.94 480.75 553.77 523.53 542.75 524.07 540.67 481.54"/>
    <path class="cls-2" d="m538.78,516.69l17.56-1.91.37,7.55,17.31,10.75c1.32.82,2.15,2.23,2.23,3.78.13,2.6-1.88,4.82-4.48,4.94l-20.97,1.02-3.98-7.29-1.05,7.53-7.91.39.92-26.76Z"/>
    <path class="cls-5" d="m217.92,517.25c3.92,11.49-1.48,15.63-8.48,23.77,2.58.5,5.2.68,7.83.54-.09.31-.19.64-.29.95l-28.3-.27c-3.36-7.45-5.94-15.22-7.7-23.2-19.07-.11-37.52-12.22-44.53-30.06,1.45-.12,2.77-.89,3.59-2.09,1.51-2.21.95-5.22-1.25-6.74-1.76-1.19-3.63-2.2-5.59-3.02-.22-1.37.07-2.78.83-3.94,1.68-2.56,5.12-3.28,7.68-1.6,14.17,7.68,34.51,12.48,36.94,31.49-1.19-16.26,1.11-32.58,6.72-47.89-14.75-7.36-25.37-22.6-26.73-39.08,5.83-.95,5.24-8.3.17-10.02.83-8.85,12.2-11.96,17.64-4.93,4.48,5.77,9.57,11.4,12.25,18.04,2.64,7.13,3.55,14.79,2.66,22.34,3.63-7.09,8-13.77,13.02-19.95-14.99-19.97,1.66-42.89,15.31-28.07-1.2,1.45-2.41,2.89-3.6,4.34-2.77,3.8,1.73,6.79,5.37,5.6-1.63,8.32-7.64,15.44-15.01,19.41-26.85,32.29-33.4,79.57-15.81,117.8-2.61-10.91,2.95-21.1,7.27-30.94,1.02-2.39,2.96-4.26,5.38-5.18,4.94-1.89,10.47.58,12.36,5.52-.09.36-.16.61-.25.97-.78.71-1.21,1.72-1.17,2.77.07,1.97,1.72,3.5,3.69,3.43h0Z"/>
    <path class="cls-2" d="m432.8,246.24c-8.52,24-8,143-8,143l-36.76,100.52s32,10,58.26,10.49c26.26.49,40.74-165.49,40.74-165.49l4.76,70.48,14,92s40.24,10.09,53,4c12.76-6.09-3.64-83.98-9-89s-11.76-91.48-12.12-98.32-22.78-67.93-22.78-67.93c0,0-73.58-23.75-82.1.26Z"/>
    <path class="cls-5" d="m440.73,103.61s-6.77.86-13.94,7.63c-7.17,6.78,11,87,11,87l-8,49s56-19,88.04,3.52c9.14,6.42-3.79-7-8.74-12.48s-6.59-29.23-6.59-29.23l1.54-34.29s-6.81-42.25-1.24-48.52c5.56-6.27-19.56-20.07-19.56-20.07l-4.84-14.85-30.02-2.75-7.64,15.03Z"/>
    <path class="cls-7" d="m617.74,238.01c2.41-5.31.07-11.56-5.24-13.97l-46.35-42.62-18.55,5.6,50.64,42.96c-.22.58-.38,1.17-.5,1.78-1.06,5.7,2.7,11.18,8.4,12.24,4.79.92,9.59-1.55,11.6-5.99Z"/>
    <path class="cls-6" d="m499.2,149.9l91.54,81.11,15.16-19.93s-90.58-92.91-114.46-96.4c-23.89-3.49-13.91,16.94-13.91,16.94l21.67,18.28Z"/>
    <path class="cls-4" d="m502.3,95.22c-44.41,49.77-100.23,92.26-165.19,128.94-4.38,3.42-5.16,9.74-1.74,14.13l94.7,121.33c3.42,4.38,9.74,5.16,14.13,1.74,77.4-35.94,143.19-75.54,165.19-128.94,4.37-3.42,5.15-9.74,1.74-14.13l-94.7-121.33c-3.42-4.37-9.74-5.15-14.13-1.74Z"/>
    <path class="cls-3" d="m343.01,227.5c65.53-31.91,120.23-72.97,161.09-125.74,2.49-1.94,6.09-1.51,8.04.98l91.51,117.24c1.94,2.5,1.49,6.09-1,8.04l-80.78,63.06c-46.89,36.38-114.37,28.07-151.02-18.61l-28.83-36.93c-1.94-2.49-1.5-6.08.99-8.03Z"/>
    <path class="cls-8" d="m518.32,163.2s0,0,0-.01c-1.03-1.33-.79-3.25.54-4.28,1.33-1.03,3.25-.79,4.28.54l18.77,24.05c1.03,1.33.8,3.24-.53,4.27-1.33,1.04-3.24.81-4.28-.52l-18.77-24.05h0Z"/>
    <path class="cls-8" d="m483.1,145.34c-1.03-1.33-.79-3.25.54-4.28,1.33-1.03,3.25-.79,4.28.54l41.23,52.82h0c1.04,1.33.8,3.25-.53,4.28-1.33,1.04-3.25.8-4.28-.53l-41.23-52.82s0,0,0-.01Z"/>
    <circle class="cls-5" cx="553.42" cy="213.36" r="20.1"/>
    <path class="cls-8" d="m481.38,183.31c1.21-1.19,3.15-1.17,4.34.04l50.64,64.87c.75,1.22.55,2.79-.47,3.79-1.21,1.19-3.15,1.17-4.34-.04l-50.64-64.87c-.75-1.22-.55-2.79.47-3.79Z"/>
    <path class="cls-8" d="m448.07,172.29c-.75-1.22-.55-2.79.47-3.79,1.21-1.19,3.15-1.17,4.34.04l70.68,90.54c.75,1.22.55,2.79-.47,3.79-1.21,1.19-3.15,1.17-4.34-.04l-70.68-90.54h0Z"/>
    <path class="cls-8" d="m448.31,212.55c-.75-1.22-.55-2.79.47-3.79,1.21-1.19,3.15-1.17,4.34.04l50.64,64.87c.75,1.22.55,2.79-.47,3.79-1.21,1.19-3.15,1.17-4.34-.04l-50.64-64.87h0Z"/>
    <path class="cls-5" d="m381.31,220.55c-.75-1.22-.55-2.79.47-3.79,1.21-1.19,3.15-1.17,4.34.04l50.64,64.87c.75,1.22.55,2.79-.47,3.79-1.21,1.19-3.15,1.17-4.34-.04l-50.64-64.87h0Z"/>
    <path class="cls-8" d="m415.93,193.94c1.21-1.19,3.15-1.17,4.34.04l70.68,90.54c.75,1.22.55,2.79-.47,3.79-1.21,1.19-3.15,1.17-4.34-.04l-70.68-90.54c-.75-1.22-.55-2.79.47-3.79Z"/>
    <path class="cls-2" d="m498.71,50.24c0-7.23-2.63-14.22-7.4-19.66-10.86-12.38-29.69-13.62-42.07-2.76-.32.27-.63.56-.94.85h0s0,.01-.01.01c-.25.24-.49.49-.73.74l-.14.14c-5.36,5.56-8.35,12.98-8.35,20.71,0,16.47,13.36,29.82,29.83,29.81s29.82-13.36,29.81-29.83h0Z"/>
    <circle class="cls-7" cx="461.54" cy="57.14" r="25.01"/>
    <path class="cls-2" d="m488.09,64.28l-8.3,10.97c-4.76-.84-4.32-16.34-5.15-21.01l-4.04,6.78-.18.06c-9.63,3.2-19.66,2.24-30.63-2.92-3.14-1.49-6.18-3.17-9.12-5.03l-.22-.14-.02-.25c-.56-8.14,1.27-14.93,5.14-19.14,3.01-3.2,7.24-4.96,11.63-4.85.15-.04.3-.12.41-.23.06-.04.11-.08.17-.12v-.04l.29-.14c.62-.29,1.25-.57,1.88-.82,10.1-3.91,21.54-1.69,29.45,5.71,7.7,7.35,11.24,19.7,8.79,30.71l-.1.47Z"/>
    <path class="cls-2" d="m571.17,81.97c-5.07,6.71-11.27,12.7-18.72,16.62-7.44,3.92-16.2,5.66-24.42,3.88s-15.75-7.33-19.03-15.08c-2.77-6.56-2.38-13.99-1.49-21.05s2.25-14.2,1.27-21.25c-.98-7.05-4.86-14.2-11.48-16.83,1.47.89,1.37,3.27.13,4.46-1.36,1.1-3.14,1.51-4.84,1.12-5.26-.84-9.11-5.24-12.47-9.39-2.57-.22-4.75-3.23-3.76-5.72,1.11-2.8,5.6-3.33,7.33-.87-.17-.69-.29-1.38-.35-2.09-.75-7.92,5.06-14.95,12.98-15.71,6.09-.58,12.01,2.83,16.02,7.45,6.28,7.23,8.66,17.05,9.67,26.57s16.85,12.52,19.05,21.84c2.2,9.32-8.75,25.26-.24,29.66,9.52,4.91,21.6,2.59,30.33-3.61Z"/>
    <path class="cls-2" d="m477.91,43.24c1.09,2.12,2.42,4.11,3.98,5.92,10.02,12.32-10.92,38.4-.9,50.72l1.37,1.37c-16.59-5.27-.13-30.65-8.87-45.71"/>
    <path class="cls-5" d="m450.15,27.85l-.91-.04c-.32.27-.63.56-.94.85h0s0,.01-.01.01c-.36.18-.7.36-1.06.56.12.06.24.12.33.18.16.07.27.12.31.13,31.76,6.38,39.16,34.03,39.16,34.03-5.02-40.77-36.88-35.73-36.88-35.73Z"/>
    <path class="cls-8" d="m717.67,543.37c0-.66-.53-1.18-1.19-1.18H1.19c-.66,0-1.19.53-1.19,1.19,0,.66.53,1.19,1.19,1.19h715.29s0,0,0,0c.66,0,1.18-.53,1.18-1.19h0Z"/>
  </g>
</svg>