<?xml version="1.0" encoding="UTF-8"?>
<svg id="Layer_2" data-name="Layer 2" xmlns="http://www.w3.org/2000/svg" viewBox="0 0 660.92 455.36">
  <defs>
    <style>
      .cls-1 {
        fill: #ffb6b6;
      }

      .cls-2 {
        fill: #2f2e41;
      }

      .cls-3 {
        fill: #fff;
      }

      .cls-4 {
        fill: #e6e6e6;
      }

      .cls-5 {
        fill: #a674fe;
      }

      .cls-6 {
        isolation: isolate;
        opacity: .1;
      }
    </style>
  </defs>
  <g id="Layer_1-2" data-name="Layer 1">
    <path class="cls-5" d="m602.46,35.65H.67c.85-4.82,2.51-9.38,4.83-13.51C12.91,8.94,27.04,0,43.23,0h516.67c16.18,0,30.32,8.94,37.72,22.14,2.32,4.13,3.99,8.69,4.84,13.51Z"/>
    <path class="cls-4" d="m442.22,211.14H160.9c-2.61,0-4.74-2.69-4.74-6s2.13-6,4.74-6h281.31c2.61,0,4.74,2.69,4.74,6s-2.13,6-4.74,6Z"/>
    <path class="cls-5" d="m602.46,35.65c-.85-4.82-2.52-9.38-4.84-13.51-7.4-13.2-21.54-22.14-37.72-22.14H43.23C27.04,0,12.91,8.94,5.5,22.14c-2.32,4.13-3.98,8.69-4.83,13.51-.44,2.46-.67,4.99-.67,7.58v368.43c0,23.84,19.39,43.23,43.23,43.23h516.67c4.94,0,9.7-.84,14.13-2.38,16.92-5.86,29.1-21.96,29.1-40.85V43.23c0-2.58-.23-5.12-.67-7.58Zm-1.33,376.01c0,20.86-15.5,38.11-35.61,40.85-1.84.25-3.71.38-5.62.38H104.64c-56.69,0-102.64-45.96-102.64-102.65V43.23c0-2.59.24-5.12.7-7.58.9-4.86,2.65-9.41,5.1-13.51C14.99,10.08,28.17,2,43.23,2h516.67c15.06,0,28.24,8.08,35.43,20.14,2.45,4.1,4.2,8.65,5.1,13.51.46,2.46.7,4.99.7,7.58v368.43Z"/>
    <g>
      <polygon class="cls-1" points="575.93 216.08 572.54 203.67 587.77 198.03 589.46 209.31 575.93 216.08"/>
      <polygon class="cls-6" points="575.93 216.08 572.54 203.67 581.51 199.89 578.72 214.52 575.93 216.08"/>
      <g>
        <path class="cls-1" d="m529.81,322.42c-2.91-1.73-3.06-6.84-.34-11.41,1.19-2,2.73-3.57,4.34-4.55l1.6-2.61,20.2-36.22s8.84-34.16,12.44-38.29c3.6-4.13,8.81-3.16,8.81-3.16l4.62,4.1-16.48,48.38-20.34,28.64-2.73,3.99c-.1,1.88-.74,3.98-1.93,5.98-2.72,4.57-7.28,6.87-10.19,5.14h0Z"/>
        <path class="cls-5" d="m573.55,212.54s6.43-.25,10.48,4.74-17.18,61.25-17.18,61.25l-17.3-.61,24-65.38h0Z"/>
      </g>
      <circle class="cls-1" cx="576.77" cy="189.85" r="15.79"/>
      <polygon class="cls-1" points="539.83 419.11 529.12 445.62 522.91 439.42 520.66 427.57 529.68 416.29 539.83 419.11"/>
      <polygon class="cls-1" points="640.22 409.53 650.94 421.93 645.86 432.09 634.58 430.39 628.94 414.6 640.22 409.53"/>
      <polygon class="cls-1" points="568.88 261.48 567.47 284.32 602.43 278.12 600.18 264.02 568.88 261.48"/>
      <path class="cls-2" d="m567.18,284.6l35.25-11.56s12.97,25.94-1.13,42.3-60.91,109.41-60.91,109.41l-14.1-6.77,20.3-59.22,22.56-54.71-1.97-19.46h0Z"/>
      <polygon class="cls-2" points="601.31 305.75 614.84 364.97 643.04 410.65 628.38 419.11 588.9 364.97 575.93 323.24 601.31 305.75"/>
      <path class="cls-2" d="m515.58,425.32h-9.77s-11.4-4.51-14.07,0,11.92,17.31,11.92,17.31c0,0,20.38,11.46,23.2,10.89s3.95-7.33,3.95-7.33l3.38-7.9-5.08,1.69s-6.77-3.95-5.08-10.72l-8.46-3.95h0Z"/>
      <path class="cls-2" d="m648.68,423.63v-5.64l6.56,5.64s10.93,3.95,2.47,12.41c-8.46,8.46-19.18,17.48-19.18,17.48,0,0-16.92,4.51-18.05-.56s0-7.13,0-7.13l6.2-3.02,5.64-14.66,9.02,1.13,7.33-5.64h0Z"/>
      <path class="cls-2" d="m581.57,192.96l-5.08-.56-9.31-9.31s-8.46,4.51-8.46,1.13c0-15.79,9.59-15.23,17.48-16.36,7.9-1.13,7.05-1.41,9.59,2.82,1.16,1.93,5.36,3.1,5.36,3.1,0,0,7.9-10.72,11.84,2.26,3.95,12.97-1.13,53.01,2.82,56.4,3.95,3.38-16.21,6.76-14.03-6.49s6.13-33.55,3.88-38.07c-2.26-4.51-2.82-3.38-2.82-3.38,2.8-1.14,4.62,18.96-5.92,19.95l-.29-9.8s-1.69-5.08-5.08-1.69h0Z"/>
      <path class="cls-5" d="m574.52,212.41l16.92-6.77,22.56,67.68-46.42-1.69-4.18-20.2s-4.08-10.51-.7-16.72,11.81-22.3,11.81-22.3h0Z"/>
      <g>
        <path class="cls-1" d="m618.54,325.78c-3.37.29-6.47-3.77-6.93-9.07-.2-2.32.14-4.49.87-6.23l-.22-3.05-4.7-41.2s-8.75-33.7-8.23-39.16c.52-5.45,1.33-6.9,1.33-6.9l6.14.64,14.81,48.91.17,35.12.11,4.83c1.01,1.58,1.72,3.67,1.92,5.99.46,5.3-1.91,9.83-5.28,10.12h0Z"/>
        <path class="cls-5" d="m590.03,211s5.08-3.95,11.28-2.26,21.74,59.78,21.74,59.78l-14.41,9.59-18.61-67.11Z"/>
      </g>
    </g>
    <path class="cls-5" d="m296.21,308.64h-67.66c-4.13,0-7.49-3.36-7.49-7.49v-6.77c0-4.13,3.36-7.49,7.49-7.49h67.66c4.13,0,7.49,3.36,7.49,7.49v6.77c0,4.13-3.36,7.49-7.49,7.49Z"/>
    <path class="cls-5" d="m556.21,87.51h-67.66c-4.13,0-7.49-3.36-7.49-7.49v-6.77c0-4.13,3.36-7.49,7.49-7.49h67.66c4.13,0,7.49,3.36,7.49,7.49v6.77c0,4.13-3.36,7.49-7.49,7.49Z"/>
    <path class="cls-5" d="m396.57,309.14h-67.66c-4.4,0-7.99-3.58-7.99-7.99v-6.77c0-4.4,3.58-7.99,7.99-7.99h67.66c4.4,0,7.99,3.58,7.99,7.99v6.77c0,4.4-3.58,7.99-7.99,7.99Zm-67.66-20.74c-3.3,0-5.99,2.69-5.99,5.99v6.77c0,3.3,2.69,5.99,5.99,5.99h67.66c3.3,0,5.99-2.69,5.99-5.99v-6.77c0-3.3-2.69-5.99-5.99-5.99h-67.66Z"/>
    <path class="cls-4" d="m479.56,180.14H123.56c-3.31,0-6-2.69-6-6s2.69-6,6-6h356c3.31,0,6,2.69,6,6s-2.69,6-6,6Z"/>
    <path class="cls-4" d="m100.89,82.64h-45c-3.31,0-6-2.69-6-6s2.69-6,6-6h45c3.31,0,6,2.69,6,6s-2.69,6-6,6Z"/>
    <path class="cls-4" d="m369.89,82.64h-45c-3.31,0-6-2.69-6-6s2.69-6,6-6h45c3.31,0,6,2.69,6,6s-2.69,6-6,6Z"/>
    <path class="cls-4" d="m454.89,82.64h-45c-3.31,0-6-2.69-6-6s2.69-6,6-6h45c3.31,0,6,2.69,6,6s-2.69,6-6,6Z"/>
    <path class="cls-4" d="m400.56,242.14h-198c-3.31,0-6-2.69-6-6s2.69-6,6-6h198c3.31,0,6,2.69,6,6s-2.69,6-6,6Z"/>
    <path class="cls-3" d="m411.19,21.4h-215.26c-2,0-3.63-1.63-3.63-3.63s1.63-3.63,3.63-3.63h215.26c2,0,3.63,1.63,3.63,3.63s-1.63,3.63-3.63,3.63h0Z"/>
  </g>
</svg>