<?xml version="1.0" encoding="UTF-8"?>
<svg id="Layer_2" data-name="Layer 2" xmlns="http://www.w3.org/2000/svg" viewBox="0 0 132.38 120.22">
  <defs>
    <style>
      .cls-1 {
        fill: #fff;
      }
    </style>
  </defs>
  <g id="Layer_1-2" data-name="Layer 1">
    <g>
      <path class="cls-1" d="m96.49,45.74c5.63,0,11.14,0,16.65,0,3.23,0,6.46-.02,9.69,0,2.06.01,4.1.29,5.88,1.4,3.53,2.19,5.02,7.33,2.21,11.38-3.76,5.42-7.69,10.74-11.51,16.12-2.7,3.8-5.31,7.65-8.01,11.44-4.12,5.79-8.3,11.54-12.43,17.32-3.48,4.88-6.91,9.8-10.39,14.68-1.33,1.86-4.21,2.65-6.16,1.79-2.48-1.09-3.57-3.37-3.12-6.06.4-2.38.57-4.81.89-7.2.45-3.31.96-6.61,1.4-9.92.32-2.4.56-4.81.88-7.21.45-3.31.96-6.61,1.4-9.92.22-1.66.35-3.32.54-5.15-.51,0-1.01,0-1.52,0-8.93-.02-17.86-.02-26.8-.05-4.83-.02-8.95-5.67-7.21-10.06,1.02-2.56,2.66-4.9,4.23-7.2,2.66-3.89,5.49-7.65,8.23-11.48,4.22-5.91,8.42-11.83,12.63-17.75,3.4-4.78,6.8-9.56,10.2-14.35,2.73-3.83,5.34-7.76,8.23-11.46,1.71-2.19,3.58-2.61,6.62-1.38,1.92.78,2.82,2.91,2.56,5.1-.57,4.8-1.13,9.61-1.73,14.41-.54,4.28-1.1,8.56-1.69,12.84-.55,3.95-1.15,7.89-1.71,11.84-.03.23.02.47.03.87Zm-35.1,18.25c9.6.01,19.2-.02,28.8.05,3.91.03,5.91,3.06,5.38,6.69-.38,2.61-.74,5.23-1.12,7.84-.37,2.57-.76,5.13-1.11,7.7-.32,2.3-.6,4.6-.88,6.9-.03.28.07.58.16,1.19,1.49-2.09,2.8-3.93,4.11-5.77,3.12-4.39,6.24-8.79,9.37-13.18,4.47-6.27,8.95-12.54,13.43-18.81.09-.11.18-.22.28-.33-.09-.04-.19-.07-.28-.11-9.64-.01-19.29-.1-28.93.02-2.84.03-5.58-2.26-5.26-5.31.29-2.83.51-5.67.88-8.49.61-4.64,1.31-9.26,1.97-13.9.11-.79.18-1.58.26-2.37-1.92,2.19-3.56,4.47-5.19,6.75-5.98,8.37-11.96,16.73-17.93,25.11-1.36,1.91-2.65,3.86-3.97,5.79-.06.07-.12.15-.18.22.07,0,.15,0,.22,0Z"/>
      <path class="cls-1" d="m31.02,98.84c-5.61,0-11.22-.1-16.82.05-2.44.06-5.21-2.99-5.07-5.28.18-2.9,2.2-5.21,5.04-5.22,8.17-.03,16.35-.02,24.52-.02,2.9,0,5.8-.11,8.7.03,2.87.14,4.59,1.08,5.52,3.91,1.01,3.04-2.05,6.68-4.93,6.6-5.65-.16-11.31-.05-16.96-.05h0Z"/>
      <path class="cls-1" d="m32.49,31.79c-5.17,0-10.35,0-15.52,0-2.35,0-4.4-2.31-4.69-4.65-.46-3.75,2.92-5.86,5.85-5.85,9.73.04,19.46.01,29.19.02,3.81,0,5.74,2.63,5.77,5.44.02,2.37-2.29,5.11-5.08,5.07-5.17-.08-10.35-.02-15.52-.02h0Z"/>
      <path class="cls-1" d="m18.94,65.27c-4.56,0-9.13-.16-13.69.05-3.31.16-6.29-3.75-4.9-7.15.79-1.92,2.32-3.19,4.34-3.21,9.46-.1,18.91-.09,28.37-.05,2.23.01,4.36,1.93,4.62,3.92.45,3.43-1.02,5.25-3.24,6.29-.6.28-1.4.13-2.11.14-4.47,0-8.93,0-13.4,0Z"/>
      <path class="cls-1" d="m119.53,56.6c0-.15,0-.29,0-.44.09.04.19.07.28.11-.09.11-.18.22-.28.33Z"/>
      <path class="cls-1" d="m61.35,63.77c.07.07.08.14.04.23-.07,0-.15,0-.22,0,.06-.07.12-.15.18-.22Z"/>
    </g>
  </g>
</svg>