<?xml version="1.0" encoding="UTF-8"?>
<svg id="Layer_2" data-name="Layer 2" xmlns="http://www.w3.org/2000/svg" viewBox="0 0 250 250">
  <defs>
    <style>
      .cls-1 {
        fill: #fff;
      }
    </style>
  </defs>
  <g id="Layer_1-2" data-name="Layer 1">
    <g>
      <path class="cls-1" d="m249.98,94.46c.02-5.93-2.63-7.33-9.47-7.23-18.75.27-37.52.25-56.27-.17-25.56-.56-40.77-13.01-41.4-33.9-.46-15.48-.25-30.98-.13-46.48.03-4.38-1.31-6.64-7.51-6.61-30.97.14-61.94-.26-92.91.05C18.77.37,3.91,11.48.73,30.32c-.56,3.34-.62,6.76-.62,10.13-.05,28.09-.03,56.18-.03,84.26h.04c0,29.54-.34,59.08.12,88.61.36,22.92,15.29,36.06,42.48,36.31,55.98.52,111.98.46,167.96.04,23.64-.18,39.28-13.93,39.31-33.18.08-40.68-.21-81.35-.01-122.03Zm-129.77,68.62c0,7.32-2.62,18.43-9.31,25.39-6.68,6.96-14.36,8.22-21.5,8.22s-15-1.17-22.05-8.4c-3.53-3.61-8.86-10.93-8.86-22.95,0-9.85,3.62-17.71,8.68-22.86,7.41-7.68,16.53-8.77,23.67-8.77,4.97,0,11.3.81,16.9,4.52,4.07,2.71,7.59,6.96,9.76,10.75l-12.56,6.78c-1.18-2.35-2.98-4.79-5.33-6.51-2.71-1.98-5.79-2.89-9.22-2.89-5.51,0-9.58,1.81-12.47,4.88-3.34,3.53-5.15,8.68-5.15,14.28,0,6.87,2.53,11.29,5.06,13.82,3.52,3.62,7.59,4.7,12.2,4.7,5.96,0,9.13-2.08,10.48-3.25.45-.36,3.16-2.71,4.34-7.14h-14.55v-11.2h29.91v.63Zm24.58,32.26h-13.92v-60.27h13.92v60.27Zm46.9-48.53h-19.52v11.66h18.07v11.75h-18.07v25.12h-13.92v-60.27h33.44v11.74Z"/>
      <path class="cls-1" d="m164.91,7.4c25.45,20.88,50.18,41.17,75.82,62.21-9.57,0-18.86.07-28.15-.02-9.79-.09-19.64.16-29.36-.62-11.97-.95-17.63-5.2-18.1-14.7-.77-15.36-.21-30.77-.21-46.87Z"/>
    </g>
  </g>
</svg>