<?xml version="1.0" encoding="UTF-8"?>
<svg id="Layer_2" data-name="Layer 2" xmlns="http://www.w3.org/2000/svg" viewBox="0 0 327.42 77.78">
  <g id="Layer_1-2" data-name="Layer 1">
    <g>
      <path d="m143.71,24.59c0,5.26-.06,10.52.03,15.77.04,2.01-.66,2.76-2.69,2.68-3.17-.13-6.34-.01-9.51-.04-3.3-.03-5.96,1.24-8.14,3.72-7.72,8.76-15.53,17.43-23.2,26.23-2.84,3.26-6.16,5.04-10.53,4.78-1.31-.08-2.63,0-3.94-.01-4.38-.02-6.41-2.01-6.41-6.34-.01-8.35,0-16.7,0-25.05,0-3.25-.11-3.33-3.42-3.32-3.22,0-5.8,1.24-7.93,3.66-7.67,8.7-15.44,17.3-23.04,26.06-3.01,3.46-6.51,5.34-11.13,5.01-1.08-.08-2.16-.01-3.25-.01-4.88,0-6.82-1.97-6.83-6.93-.01-8.2,0-16.39,0-24.59,0-3.18-.01-3.19-3.26-3.19-5.95,0-11.91-.06-17.86.02-1.9.03-2.61-.6-2.59-2.53.08-6.8-.02-13.61.05-20.41.08-7.93,6.11-14.13,14.02-14.41,3.86-.13,7.73.03,11.6-.08,2.01-.06,2.72.65,2.7,2.68-.08,8.81-.02,17.63-.05,26.44,0,1.88.16,3.64,2.21,4.39,2.04.75,3.31-.49,4.55-1.89,6.85-7.77,13.74-15.5,20.6-23.27,4.77-5.4,10.71-8.23,17.93-8.3,2.32-.02,4.64-.02,6.96-.02,3.18,0,3.29.12,3.29,3.22,0,8.66.02,17.32-.02,25.98,0,1.87.11,3.65,2.18,4.4,2.03.73,3.3-.48,4.55-1.89,6.75-7.66,13.59-15.23,20.3-22.91,5.15-5.89,11.51-8.92,19.36-8.8,3.48.06,6.96.13,10.44-.03,2.3-.11,3.16.6,3.1,2.99-.15,5.33-.05,10.67-.04,16Z"/>
      <g>
        <path d="m191.81,11.29h-7.87c-.35-2.49-1.66-4.16-4.24-4.16-1.79,0-3.02.88-3.02,2.71s1.4,3.11,6.39,4.29c6.65,1.58,9.36,4.9,9.36,9.54,0,6.04-5.77,9.1-11.86,9.1-7.66,0-12.82-3.06-13.3-9.84h7.88c.52,2.84,2.84,4.07,5.21,4.07,2.19,0,3.85-1.14,3.85-2.8,0-1.58-1.14-2.93-4.86-3.85-6.87-1.71-10.89-3.85-10.89-9.89s5.42-9.1,11.42-9.1c7.96,0,11.29,4.33,11.94,9.93Z"/>
        <path d="m218.28,22.44h-16.27c.39,3.89,2.1,4.99,4.33,4.99s3.59-1.14,3.89-2.93h7.74c-1.36,5.29-5.73,8.27-11.72,8.27-6.69,0-12.03-3.98-12.03-12.21,0-6.83,4.68-12.38,12.47-12.38s11.72,5.95,11.72,11.99c0,.7-.04,1.49-.13,2.28Zm-8.09-4.81c-.44-2.76-1.79-4.11-3.89-4.11s-3.5,1.23-4.02,4.11h7.92Z"/>
        <path d="m244.09,17.72h-7.61c-.35-3.06-1.88-4.2-3.85-4.2-2.62,0-4.07,2.23-4.07,6.74,0,4.99,1.49,7.17,4.16,7.17,1.79,0,3.28-1.31,3.72-3.85h7.74c-.88,6.04-5.56,9.19-11.9,9.19-6.69,0-11.77-4.33-11.77-12.03s5.42-12.56,12.29-12.56,11.07,4.29,11.29,9.54Z"/>
        <path d="m271.3,20.47c0,7.48-4.9,12.29-12.56,12.29s-12.56-4.81-12.56-12.29,4.9-12.29,12.56-12.29,12.56,4.77,12.56,12.29Zm-12.56,6.96c2.8,0,4.51-2.32,4.51-6.96s-1.71-6.96-4.51-6.96-4.51,2.28-4.51,6.96,1.71,6.96,4.51,6.96Z"/>
        <path d="m298.42,18.94v13.21h-7.87v-11.9c0-.74,0-2.01-.09-3.19-.17-2.23-1.4-3.54-3.76-3.54s-4.11,2.32-4.11,7.61v11.02h-7.87V8.79h7.87v3.63l2.1-2.89c1.44-.88,3.11-1.36,5.25-1.36,4.81,0,7.66,2.28,8.27,6.34.17,1.18.22,2.54.22,4.42Z"/>
        <path d="m319.55,32.15v-3.41l-1.75,2.58c-1.31.96-3.59,1.44-5.95,1.44-6.34,0-10.28-4.86-10.28-11.77,0-8.31,5.08-12.82,11.07-12.82,1.92,0,4.2.44,5.38,1.14l1.53,2.49V0h7.87v32.15h-7.87Zm-4.99-4.72c2.89,0,4.99-1.75,4.99-6.65v-1.01c0-4.68-2.41-6.26-4.77-6.26-3.06,0-5.16,2.32-5.16,7.09,0,4.38,2.19,6.83,4.94,6.83Z"/>
        <path d="m193.48,70.98l-6.04-25.72-6.34,25.72h-6.39l-7.79-30.19h5.29l5.77,26.2,6.26-25.77h6.61l6.08,25.9,6.12-26.34h4.99l-8.22,30.19h-6.34Z"/>
        <path d="m211.15,39.65h4.86v5.56h-4.86v-5.56Zm0,8.09h4.81v23.23h-4.81v-23.23Z"/>
        <path d="m242.78,57.9v13.08h-4.81v-12.56c0-1.09,0-2.1-.09-3.28-.22-2.62-1.62-4.46-4.9-4.46s-6.04,2.62-6.04,9.89v10.41h-4.81v-23.23h4.81v3.85l1.57-2.67c1.84-1.4,3.54-1.79,5.86-1.79,4.99,0,7.83,2.58,8.27,6.65.09,1.18.13,2.23.13,4.11Z"/>
        <path d="m265.17,70.98v-3.67l-1.75,2.54c-1.31,1.05-3.72,1.75-6.08,1.75-6.65,0-10.46-5.03-10.46-11.86,0-8.49,5.25-12.6,11.24-12.6,1.92,0,4.33.53,5.51,1.44l1.53,2.32v-12.07h4.81v32.15h-4.81Zm-6.74-2.89c3.63,0,6.74-2.27,6.74-8.49v-1.22c0-5.64-3.41-7.74-6.52-7.74-3.81,0-6.69,2.93-6.69,8.71,0,5.03,2.32,8.75,6.47,8.75Z"/>
      </g>
    </g>
  </g>
</svg>