<?xml version="1.0" encoding="UTF-8"?>
<svg id="Layer_2" data-name="Layer 2" xmlns="http://www.w3.org/2000/svg" viewBox="0 0 308.37 306.42">
  <defs>
    <style>
      .cls-1 {
        fill: #fff;
      }
    </style>
  </defs>
  <g id="Layer_1-2" data-name="Layer 1">
    <g>
      <path class="cls-1" d="m66.86,50.99c-17.72,0-35.89-.2-54.05.09-8.69.14-13-9.51-11.69-15.15,1.95-8.38,6.54-10.47,13.69-10.53,16.54-.15,33.07-.07,49.61-.01,2.08,0,2.93-.52,3.92-2.66,5.11-11.02,13.38-19.11,25.39-21.65,13.99-2.95,26.8,0,37.34,10.62,2.88,2.9,4.75,6.12,6.2,9.77,1.1,2.75,2.69,4,6.08,3.99,48.56-.16,97.13-.12,145.69-.08,3.44,0,7.01-.03,10.3.8,3.96,1,8.9,4.91,8.39,12.94-.33,5.22-3.9,10.29-8.8,11.3-2.1.43-4.29.58-6.44.58-48.1.03-96.2.02-144.29.02h-9.12c-5.18,13.88-14.67,22.93-29.32,25.08-5.71.84-12.02.21-17.6-1.38-5.59-1.59-11.47-4.28-15.63-8.19-4.15-3.91-6.32-9.92-9.67-15.55Z"/>
      <path class="cls-1" d="m135.65,246.17c1.06,3.04,2.11,6.08,3.2,9.21h4.37c49.01,0,98.02-.07,147.03.1,5.06.02,10.62-.45,14.62,4.24,3.17,3.72,3.39,7.91,2.39,12.28-1.07,4.64-4.25,7.44-8.85,8.39-2.32.48-4.74.64-7.11.64-49.71.03-99.41.03-149.12.03-1.6,0-2.99-.17-3.86,1.91-5.32,12.74-14.96,20.34-28.41,23.19-.58-.66-1.17-1.31-1.75-1.97-.58.66-1.16,1.31-1.75,1.97-17.27,1.84-29.07-6.06-37.06-20.79-.18-.25-.36-.5-.54-.76-.28-.28-.56-.57-.83-.85,0-.2,0-.41-.02-.61.01-2.63-1.95-2.08-3.47-2.08-16.29-.02-32.57,0-48.86-.03-1.71,0-3.46-.03-5.11-.39-7.71-1.69-10.07-8.56-9.55-13.78.73-7.3,5.47-11.36,13.19-11.44,13.03-.14,26.06-.05,39.09-.05,4.76,0,9.52,0,14.21,0,5.55-13.95,15.02-22.61,30.19-24.71,5.94-.82,11.51-.04,17.19,1.13,1.1.23,2.32-.08,3.48-.15.17.18.35.35.52.53,2.39,1.4,4.8,2.79,7.16,4.23.54.33.94.87,1.41,1.31.41.49.83.98,1.24,1.47,1.93,1.85,3.86,3.71,5.79,5.56.4.48.81.95,1.21,1.43Z"/>
      <path class="cls-1" d="m308.25,150.41c.65,5.3-1.38,9.59-4.99,13.3-.16.17-.31.34-.47.51-2.86.57-5.71,1.59-8.57,1.62-16.29.16-32.58.16-48.87,0-3-.03-4.39.97-5.54,3.65-4.62,10.74-13.15,17.66-23.92,21.01-6.39,1.98-13.51,2.5-20.27-.08-1.8-.69-3.7-1.11-5.55-1.66-.37-.28-.74-.55-1.12-.83-.49-.2-.97-.41-1.46-.61-.47-.19-.95-.37-1.42-.56h0c-.48-.23-.95-.46-1.43-.69-1.13-1.03-2.25-2.06-3.38-3.09-5.2-4.74-9.31-10.23-11.62-17.07h-3.15c-50.29,0-100.58,0-150.87.01-2.89,0-6.01.89-8.4-1.27-2.05-1.85-3.73-4.12-5.5-6.26-.64-.78-1.05-1.74-1.71-2.86.21-.68.77-1.75.87-2.86.73-8.56,5.29-11.54,12.22-12.12,1.16-.1,2.33-.05,3.49-.05,49.71,0,99.42,0,149.13,0h3.85c3.71-9.61,9.64-17.17,19.02-21.7.47-.23.77-.82,1.15-1.24.44-.01.89-.02,1.33-.03,7.25-2.73,14.67-2.66,22.18-1.44.51.08,1.08-.19,1.63-.29.46.12.91.24,1.37.36,5.19,2.44,10.85,4.17,14.67,8.79,2.91,3.52,5.91,7.05,8.2,10.97,1.74,2.98,3.12,4.78,7.11,4.69,15.12-.31,30.26.06,45.38-.21,7.24-.13,13.01,1.58,16.08,8.72.2.42.39.85.59,1.27Z"/>
      <path class="cls-1" d="m106.42,306.16c.58-.66,1.16-1.31,1.75-1.97.58.66,1.17,1.31,1.75,1.97-1.16,0-2.33,0-3.49,0Z"/>
      <path class="cls-1" d="m135.65,246.17c-.4-.48-.81-.95-1.21-1.43.4.48.81.95,1.21,1.43Z"/>
      <path class="cls-1" d="m128.65,239.18c-.41-.49-.83-.98-1.24-1.47.41.49.83.98,1.24,1.47Z"/>
      <path class="cls-1" d="m308.25,150.41c-.2-.42-.39-.85-.59-1.27.2.42.39.85.59,1.27Z"/>
      <path class="cls-1" d="m184.64,186.07c.48.23.95.47,1.43.7-.48-.23-.95-.47-1.43-.7Z"/>
      <path class="cls-1" d="m186.06,186.77c.47.19.95.37,1.42.56-.47-.19-.95-.37-1.42-.56Z"/>
      <path class="cls-1" d="m216.23,116.16c-.46-.12-.91-.24-1.37-.36.28-.35.57-.71.99-1.23.17.73.28,1.16.38,1.59Z"/>
      <path class="cls-1" d="m191.05,117.53c-.44.01-.89.02-1.33.03.44-.01.89-.02,1.33-.03Z"/>
      <path class="cls-1" d="m302.79,164.22c.16-.17.31-.34.47-.51-.16.17-.31.34-.47.51Z"/>
      <path class="cls-1" d="m188.94,187.94c.37.28.74.55,1.12.83-.37-.28-.74-.55-1.12-.83Z"/>
      <path class="cls-1" d="m118.84,232.18c-.17-.18-.35-.35-.52-.53.17.18.35.35.52.53Z"/>
      <path class="cls-1" d="m67.96,283.15c.02.2.02.41.02.61-.18-.03-.35-.06-.53-.09.17-.17.34-.35.51-.52Z"/>
      <path class="cls-1" d="m68.82,284.61c.18.25.36.5.54.76-.18-.25-.36-.5-.54-.76Z"/>
    </g>
  </g>
</svg>